# xmcd
#
# Track frame offsets: 
#        150
#        15600
#        28480
#        44167
#        57085
#        69940
#        82847
#        95835
#        107182
#        122542
#        138880
#        153880
#        169020
#        183582
#        196632
#        208845
#        224330
#        240262
#        250675
#        263385
#        275035
#        289852
#        304482
#        316925
#
# Disc length: 4414 seconds
#
# Revision: 6
# Processed by: cddbd v1.5.2PL0 Copyright (c) Steve Scherf et al.
# Submitted via: ExactAudioCopy v1.0b3
#
DISCID=56113c18
DTITLE=Glenn Miller - The Essential Glenn Miller Disc 1
DYEAR=1995
DGENRE=Big Band
TTITLE0=Moonlighht Serenade
TTITLE1=Wishing (Will Make It So)
TTITLE2=Sunrise Serenade
TTITLE3=Little Brown Jug
TTITLE4=Running Wild
TTITLE5=Stairway To The Stars
TTITLE6=Moon Love
TTITLE7=Over The Rainbow
TTITLE8=My Isle Of Golden Dreams
TTITLE9=In The Mood
TTITLE10=Indian Summer
TTITLE11=It's A Blue World
TTITLE12=The Gaucho Serenade
TTITLE13=When You Wish Upon A Star
TTITLE14=Say "Si Si" (Para Vigo Me Voy)
TTITLE15=Stardust
TTITLE16=Tuxedo Junction
TTITLE17=Danny Boy (Londonderry Air)
TTITLE18=Imagination
TTITLE19=Fools Rush In (Where Angels Fear To Tread)
TTITLE20=Pennsylvania 6-5000
TTITLE21=The Nearness Of You
TTITLE22=When The Swallows Come Back To Capistrano
TTITLE23=A Million Dreams Ago
EXTD=
EXTT0=
EXTT1=
EXTT2=
EXTT3=
EXTT4=
EXTT5=
EXTT6=
EXTT7=
EXTT8=
EXTT9=
EXTT10=
EXTT11=
EXTT12=
EXTT13=
EXTT14=
EXTT15=
EXTT16=
EXTT17=
EXTT18=
EXTT19=
EXTT20=
EXTT21=
EXTT22=
EXTT23=
PLAYORDER=
